<svg xmlns="http://www.w3.org/2000/svg" viewBox="0 0 366.26 95.88"><defs><style>.cls-1{fill:#13110c;}</style></defs><g id="Livello_2" data-name="Livello 2"><g id="Livello_1-2" data-name="Livello 1"><path class="cls-1" d="M330.43,81.94a21.9,21.9,0,1,1,21.9-21.89,22.09,22.09,0,0,1-21.9,21.89Zm0-58a35.83,35.83,0,1,0,35.83,35.83,35.68,35.68,0,0,0-35.83-35.83Z"/><path class="cls-1" d="M134,37.82A22.35,22.35,0,0,1,154.6,52.09H113.46A22.35,22.35,0,0,1,134,37.82ZM152.28,72a21.81,21.81,0,0,1-39.48-6.63h56.73a27,27,0,0,0,.33-5.31,35.63,35.63,0,1,0-2,11.94Z"/><path class="cls-1" d="M54.08,72.32a22.45,22.45,0,0,1-18.25,9.62A21.9,21.9,0,1,1,54.74,49.1H70A36.17,36.17,0,0,0,35.83,24.22a35.83,35.83,0,1,0,33.84,48.1Z"/><polygon class="cls-1" points="201.38 0 216.64 0 216.64 95.21 201.38 95.21 201.38 0 201.38 0"/><polygon class="cls-1" points="247.82 0 263.08 0 263.08 15.26 247.82 15.26 247.82 0 247.82 0"/><polygon class="cls-1" points="247.82 26.87 263.08 26.87 263.08 95.21 247.82 95.21 247.82 26.87 247.82 26.87"/></g></g></svg>