<?xml version="1.0" encoding="UTF-8" standalone="no"?>
<svg
   xmlns:dc="http://purl.org/dc/elements/1.1/"
   xmlns:cc="http://creativecommons.org/ns#"
   xmlns:rdf="http://www.w3.org/1999/02/22-rdf-syntax-ns#"
   xmlns:svg="http://www.w3.org/2000/svg"
   xmlns="http://www.w3.org/2000/svg"
   xmlns:sodipodi="http://sodipodi.sourceforge.net/DTD/sodipodi-0.dtd"
   xmlns:inkscape="http://www.inkscape.org/namespaces/inkscape"
   width="173.39999mm"
   height="173.39999mm"
   viewBox="0 0 173.39999 173.39999"
   version="1.1"
   id="svg8"
   inkscape:version="1.0.2-2 (e86c870879, 2021-01-15)"
   sodipodi:docname="Colmar.svg">
  <defs
     id="defs2" />
  <sodipodi:namedview
     id="base"
     pagecolor="#ffffff"
     bordercolor="#666666"
     borderopacity="1.0"
     inkscape:pageopacity="0.0"
     inkscape:pageshadow="2"
     inkscape:zoom="0.35"
     inkscape:cx="219.84705"
     inkscape:cy="413.02635"
     inkscape:document-units="mm"
     inkscape:current-layer="layer1"
     inkscape:document-rotation="0"
     showgrid="false"
     inkscape:window-width="1920"
     inkscape:window-height="1001"
     inkscape:window-x="-9"
     inkscape:window-y="-9"
     inkscape:window-maximized="1" />
  <metadata
     id="metadata5">
    <rdf:RDF>
      <cc:Work
         rdf:about="">
        <dc:format>image/svg+xml</dc:format>
        <dc:type
           rdf:resource="http://purl.org/dc/dcmitype/StillImage" />
        <dc:title></dc:title>
      </cc:Work>
    </rdf:RDF>
  </metadata>
  <g
     inkscape:label="Livello 1"
     inkscape:groupmode="layer"
     id="layer1">
    <g
       id="g900">
      <circle
         style="opacity:1;fill:#ffffff;fill-opacity:1;stroke:#004ea0;stroke-width:5.05066;stroke-miterlimit:4;stroke-dasharray:none;stroke-opacity:1"
         id="path847"
         cx="86.699997"
         cy="86.699997"
         r="84.174667" />
      <ellipse
         style="opacity:1;fill:#bf112c;fill-opacity:1;stroke:none;stroke-width:8.20471;stroke-miterlimit:4;stroke-dasharray:none;stroke-opacity:1"
         id="path849"
         cx="86.699989"
         cy="86.699997"
         rx="71.53199"
         ry="71.531998" />
      <path
         style="fill:#ffffff;stroke:none;stroke-width:0.264583px;stroke-linecap:butt;stroke-linejoin:miter;stroke-opacity:1"
         d="m 36.971407,100.92312 c 0.80181,-0.18375 1.10249,0.71829 1.10249,0.71829 l 1.45328,3.00678 c 0,0 0.58465,0.96885 -0.60136,1.43657 0,0 -2.35531,1.26953 -4.81085,1.20272 0,0 -5.47902,0.13363 -8.51922,-4.54359 0,0 -1.64484,-2.58325 -2.66438,-6.099493 -0.91849,-3.49569 -1.02655,-7.2991 -1.06068,-10.82201 0,0 0.0835,-5.56254 1.21941,-9.78874 1.71246,-4.82983 3.77114,-7.96759 7.40635,-9.15127 2.69879,-0.61768 5.25763,-0.89943 8.21222,0.33137 0,0 1.33634,0.55125 0.75169,1.55351 l -1.50339,3.40768 c -0.002,0.001 -0.47037,0.77271 -1.10249,0.51784 0,0 -3.4578,-1.06908 -5.0113,0.28397 0,0 -3.17383,2.6894 -3.37428,8.87001 0,0 -0.18693,2.92166 -0.17748,5.7965 -0.004,3.25583 0.5479,6.71162 1.44135,9.37299 0.8284,2.30151 1.80722,3.895673 3.57907,4.232233 0.87481,0.14468 2.18161,0.07 3.65957,-0.32536 z"
         id="path851"
         sodipodi:nodetypes="cccccccccccccccccccc" />
      <path
         style="fill:#ffffff;stroke:none;stroke-width:0.264583px;stroke-linecap:butt;stroke-linejoin:miter;stroke-opacity:1"
         d="m 65.702887,68.048967 c -0.0574,-0.94807 0.41492,-1.50106 1.67044,-1.46998 h 4.00904 c 0.79831,-0.0289 0.80966,0.61212 0.8018,1.26953 l 0.0668,33.074603 6.28084,-0.0668 c 0.96495,-0.0445 0.78328,0.32383 0.66817,0.66818 l -1.93768,4.81083 c -0.25292,0.62268 -0.65148,0.68226 -1.06908,0.66817 h -9.55489 c -0.72687,0.0321 -0.96429,-0.36759 -0.93544,-1.00226 z"
         id="path853"
         sodipodi:nodetypes="cccccccccccc" />
      <path
         style="fill:#ffffff;fill-opacity:1;stroke:none;stroke-width:0.264583px;stroke-linecap:butt;stroke-linejoin:miter;stroke-opacity:1"
         d="m 81.872697,106.10147 c -0.0278,0.71377 0.30959,0.96395 0.93544,0.93544 l 4.49043,-0.004 c 0.72001,0.0417 1.04026,-0.30006 0.98859,-0.99855 l 0.0334,-26.192413 4.6104,17.13865 c 0.1197,0.4708 0.27755,0.76835 0.55376,0.70701 h 0.73941 c 0.33649,0.049 0.40906,-0.41822 0.51884,-0.76991 l 4.83633,-16.84167 -0.16704,25.758103 c 0,0 -0.10023,1.20248 0.868623,1.20248 h 4.57699 c 0,0 1.20272,-0.0332 1.16931,-1.10224 l 0.0334,-38.119333 c 0,0 -0.0334,-1.1359 -1.23612,-1.1359 l -5.579253,0.10023 c -0.1144,0.0245 -0.83288,-0.19379 -1.10248,0.90203 l -4.24291,16.06958 -4.10927,-15.83572 c 0,0 -0.33408,-1.30293 -1.40316,-1.26953 l -5.57925,0.10023 c 0,0 -0.96885,-0.0334 -1.00226,1.00226 z"
         id="path855"
         sodipodi:nodetypes="cccccccccccccccccccccccc" />
      <path
         style="opacity:1;fill:#ffffff;fill-opacity:1;stroke:none;stroke-width:0.264583px;stroke-linecap:butt;stroke-linejoin:miter;stroke-opacity:1"
         d="m 39.890387,85.766647 c 0,0 -0.54334,9.87462 2.24424,14.977303 0,0 1.3888,3.55729 4.48135,5.39654 2.78236,1.40489 6.25442,1.30829 8.42311,0.24785 5.69645,-3.34776 6.23356,-8.368513 6.90804,-14.182653 0.50406,-5.44006 0.38111,-11.52189 -0.70744,-15.91689 -0.46994,-1.82189 -1.15301,-3.69789 -2.14338,-5.40497 0,0 -2.43323,-4.7247 -8.032,-4.6302 0,0 -7.11068,-0.33073 -9.49665,7.77213 0,0 -1.98438,6.75633 -1.67727,11.74089 z"
         id="path857"
         sodipodi:nodetypes="cccccccccc" />
      <path
         style="opacity:1;fill:#bf112c;fill-opacity:1;stroke:none;stroke-width:0.144891px;stroke-linecap:butt;stroke-linejoin:miter;stroke-opacity:1"
         d="m 46.378357,86.152547 c 0,0 -0.22797,7.05781 0.94162,10.70492 0,0 0.5827,2.54255 1.88024,3.857153 1.16741,1.00413 2.62418,0.93508 3.5341,0.17715 2.39007,-2.392793 2.61543,-5.981343 2.89841,-10.136963 0.2115,-3.88824 0.15991,-8.23519 -0.29681,-11.37649 -0.19718,-1.30219 -0.48377,-2.64304 -0.8993,-3.86316 0,0 -1.02092,-3.37695 -3.37,-3.30941 0,0 -2.98344,-0.23639 -3.98453,5.55508 0,0 -0.83259,4.82905 -0.70373,8.39172 z"
         id="path857-4"
         sodipodi:nodetypes="cccccccccc" />
      <path
         style="fill:#ffffff;fill-opacity:1;stroke:none;stroke-width:0.264583px;stroke-linecap:butt;stroke-linejoin:miter;stroke-opacity:1"
         d="m 123.96647,68.119877 c 0,0 -0.0473,-1.37016 -1.27567,-1.41741 h -6.52009 c -0.0963,0.0241 -0.80649,-0.18816 -1.03943,0.94494 l -6.33111,38.222853 c 0,0 -0.23623,0.99218 0.85045,1.03943 h 4.7247 c 0,0 0.75596,0.14174 0.99219,-0.7087 l 0.8977,-5.62238 h 6.85081 l 0.8032,5.43339 c 0.11624,0.62716 0.44432,0.77909 0.85045,0.75595 l 4.58296,0.0472 c 0,0 1.08668,0.0945 0.94494,-1.03944 z"
         id="path881"
         sodipodi:nodetypes="ccccccccccccccc" />
      <path
         style="fill:#bf112c;fill-opacity:1;stroke:none;stroke-width:0.264583px;stroke-linecap:butt;stroke-linejoin:miter;stroke-opacity:1"
         d="m 117.11983,94.435167 5.14575,10e-4 -2.64583,-19.0878 z"
         id="path883"
         sodipodi:nodetypes="cccc" />
      <path
         style="fill:#ffffff;fill-opacity:1;stroke:none;stroke-width:0.264583px;stroke-linecap:butt;stroke-linejoin:miter;stroke-opacity:1"
         d="m 140.29067,66.662567 -5.73247,-0.0501 c -1.33634,-0.0334 -1.36975,0.93544 -1.36975,0.93544 V 105.9345 c 0,0.93546 0.96885,0.96886 0.96885,0.96886 l 4.20949,0.0668 c 1.33635,0.13364 1.30294,-1.00226 1.30294,-1.00226 l 0.10023,-12.628483 4.94448,12.528253 c 0.46773,1.23612 1.36976,0.96885 1.36976,0.96885 l 5.07812,-0.0334 c 1.00226,-0.10023 0.56795,-0.96885 0.56795,-0.96885 l -5.51243,-12.762123 c 0,0 5.73581,-3.16812 5.46858,-12.20739 -0.19602,-5.94453 -1.9775,-11.70195 -7.96256,-13.73829 -1.05482,-0.3452 -2.15438,-0.48122 -3.43319,-0.46386 z"
         id="path885"
         sodipodi:nodetypes="ccccccccscccccccc" />
      <path
         style="fill:#bf112c;fill-opacity:1;stroke:none;stroke-width:0.264583px;stroke-linecap:butt;stroke-linejoin:miter;stroke-opacity:1"
         d="m 139.63632,89.296887 0.0334,-16.47048 c 0,0 5.54584,-0.16704 5.44562,7.85104 0,0 0.3675,8.31876 -5.47903,8.61944 z"
         id="path887" />
    </g>
  </g>
</svg>
