<?xml version="1.0" encoding="UTF-8"?>
<svg width="104px" height="60px" viewBox="0 0 104 60" version="1.1" xmlns="http://www.w3.org/2000/svg" xmlns:xlink="http://www.w3.org/1999/xlink">
    <!-- Generator: Sketch 63.1 (92452) - https://sketch.com -->
    <title>C/Logo/CP</title>
    <desc>Created with Sketch.</desc>
    <g id="page" stroke="none" stroke-width="1" fill="none" fill-rule="evenodd">
        <g id="D/Elem/menu/White/" transform="translate(-73.000000, -20.000000)" fill="#1A1919">
            <g id="C/Logo/CP" transform="translate(73.000000, 20.000000)">
                <path d="M7.34049156,42.8838516 C8.94612858,42.8838516 10.4641483,44.0183047 11.4004303,44.0183047 C11.8690807,44.0183047 12.1146128,43.8182266 12.1370265,43.3510391 L12.5384358,43.3510391 L12.5384358,48.5997891 L12.1370265,48.5997891 C11.7804447,46.3308828 9.88342937,43.2840078 7.34049156,43.2840078 C5.08689443,43.2840078 3.74818438,45.3975234 3.74818438,51.0687734 C3.74818438,56.4729141 4.7303126,58.8525234 7.27325042,58.8525234 C10.1513751,58.8525234 11.8242533,56.0057266 12.1370265,54.2040078 L12.27049,53.4483828 L12.6056769,53.4483828 L12.6056769,58.8972109 L12.27049,58.8972109 C12.1818539,58.5640859 11.9139082,57.9851797 11.4452578,57.9851797 C10.7310753,57.9851797 9.72755217,59.2526797 7.05013207,59.2526797 C2.63259267,59.2526797 -9.24112572e-13,55.3161172 -9.24112572e-13,51.3358828 C-9.24112572e-13,47.3769766 2.76707496,42.8838516 7.34049156,42.8838516 Z M21.4952618,42.8839531 C25.7120966,42.8839531 28.5902213,46.7098125 28.5902213,51.068875 C28.6788573,55.2278594 25.4441508,59.2527812 21.4952618,59.2527812 C17.5463728,59.2527812 14.3106474,55.2278594 14.4003023,51.068875 C14.4003023,46.7098125 17.278427,42.8839531 21.4952618,42.8839531 Z M67.9324034,42.8839531 L73.9117712,58.4971562 L74.7168311,58.4971562 C75.407581,58.4971562 76.0555411,58.2523906 76.0555411,56.8955156 L76.0555411,44.9527812 L75.0744317,43.6405937 L74.3816442,43.6405937 L74.3816442,43.2404375 L78.9784933,43.2404375 L87.3887303,54.026375 L87.4335577,54.026375 L87.4335577,44.9080937 C87.4335577,44.0630937 86.898685,43.6405937 85.9165568,43.6405937 L85.4927338,43.6405937 L85.4927338,43.2404375 L96.3766299,43.2404375 L96.3766299,43.6405937 L94.7699741,43.6405937 L98.4519361,52.0469219 L101.107961,46.0425469 C101.374888,45.397625 101.553179,44.88575 101.553179,44.5079375 C101.553179,43.9290312 101.217992,43.6405937 100.215488,43.6405937 L99.9251285,43.6405937 L99.9251285,43.2404375 L103.94024,43.2404375 L103.94024,43.6405937 L103.785381,43.6405937 C103.026372,43.6405937 102.512894,44.0630937 101.822144,45.73075 L98.787123,52.5141094 L98.787123,58.4971562 L100.504829,58.4971562 L100.504829,58.8973125 L93.5891788,58.8973125 L93.5891788,58.4971562 L95.3068844,58.4971562 L95.3068844,53.4484844 L90.9779811,43.6405937 L89.3967954,43.6405937 C88.3922534,43.6405937 87.9684305,44.2855156 87.9684305,44.8410625 L87.9684305,59.1644219 L87.0311297,59.1644219 L76.6342225,45.6423906 L76.5904139,45.6423906 L76.5904139,57.0072344 C76.5904139,58.2747344 77.081478,58.4971562 78.3305332,58.4971562 L78.5322566,58.4971562 L78.5322566,58.8973125 L68.3562264,58.8973125 L68.3562264,58.4971562 L70.1411731,58.4971562 L68.5121036,53.8709844 L64.184219,53.8709844 L63.1124359,57.0072344 C63.0462136,57.1849687 62.9565587,57.4297344 62.9565587,57.6745 C62.9565587,58.4077812 63.5810863,58.4971562 64.0283418,58.4971562 L64.6528694,58.4971562 L64.6528694,58.8973125 L60.6143255,58.8973125 L60.6143255,58.4971562 L60.9036662,58.4971562 C61.7513122,58.430125 62.1537402,57.8969219 62.4206672,57.162625 L67.5972165,42.8839531 L67.9324034,42.8839531 Z M35.0020719,43.2404375 L38.7064477,53.9827031 L38.7502563,53.9827031 L42.5208544,43.2404375 L47.8981083,43.2404375 L47.8981083,43.6405937 L46.2242113,43.6405937 L46.2242113,58.4971562 L47.8981083,58.4971562 L47.8981083,58.8973125 L40.8255625,58.8973125 L40.8255625,58.4971562 L42.7439727,58.4971562 L42.7439727,44.04075 L42.7001641,44.04075 L37.5012011,58.8973125 L36.8990872,58.8973125 L31.5116452,43.61825 L31.5218333,43.7736406 L31.5218333,56.3846562 C31.5218333,58.1853594 31.9904837,58.4971562 33.1957303,58.4971562 L33.5074846,58.4971562 L33.5074846,58.8973125 L29.1796001,58.8973125 L29.1796001,58.4971562 L29.2682362,58.4971562 C30.7638422,58.4971562 30.9869606,57.5404375 30.9869606,56.5847344 L30.9869606,43.6405937 L29.2906499,43.6405937 L29.2906499,43.2404375 L35.0020719,43.2404375 Z M57.2162026,43.2404375 C61.1202642,43.2404375 62.9500384,44.6856719 62.9500384,47.4217656 C62.9500384,50.1121562 60.3174457,51.8691875 56.9482569,51.8691875 C56.0109561,51.8691875 55.2081376,51.8468437 54.5387825,51.7808281 L54.5387825,58.4971562 L56.7475522,58.4971562 L56.7475522,58.8973125 L49.2511835,58.8973125 L49.2511835,58.4971562 L51.0585439,58.4971562 L51.0585439,43.6405937 L49.2511835,43.6405937 L49.2511835,43.2404375 L57.2162026,43.2404375 Z M21.5840217,43.2848124 L21.4952618,43.2841094 C19.7775562,43.2841094 18.1484867,44.04075 18.1484867,51.068875 C18.1484867,56.7177812 18.8850828,58.852625 21.4952618,58.852625 C24.1054407,58.852625 24.8420369,56.7177812 24.8420369,51.068875 C24.8420369,44.1619246 23.2686579,43.3120647 21.5840217,43.2848124 Z M66.3929887,47.8442656 L66.3481613,47.8442656 L64.3625099,53.4708281 L68.3327938,53.4708281 L66.3929887,47.8442656 Z M56.346143,43.6405937 L54.5387825,43.6405937 L54.5387825,51.3573125 C54.8067283,51.4243437 55.1633101,51.4690312 55.4760833,51.4690312 C58.1310897,51.4690312 59.201854,50.1791875 59.201854,47.5548125 C59.201854,44.7303594 58.7556173,43.6405937 56.346143,43.6405937 Z M31.8933916,-1.69197989e-13 C35.7342872,-1.69197989e-13 39.3632714,2.71273437 41.603624,2.71273437 C42.7243098,2.71273437 43.3111416,2.234375 43.3641194,1.1171875 L44.3248528,1.1171875 L44.3248528,13.6703125 L43.3641194,13.6703125 C42.5113795,8.24484375 37.9756587,0.957734375 31.8933916,0.957734375 C26.503912,0.957734375 23.302826,6.01046875 23.302826,19.5741406 C23.302826,32.5 25.6501532,38.1915625 31.7334391,38.1915625 C38.6164872,38.1915625 42.6173352,31.3828125 43.3641194,27.0745312 L43.6850431,25.2657031 L44.4848052,25.2657031 L44.4848052,38.2971875 L43.6850431,38.2971875 C43.471094,37.4999219 42.8312843,36.1166406 41.7105986,36.1166406 C40.003081,36.1166406 37.602776,39.1482812 31.1995852,39.1482812 C20.6345751,39.1482812 14.3383589,29.7334375 14.3383589,20.2129687 C14.3383589,10.7453125 20.95448,-1.69197989e-13 31.8933916,-1.69197989e-13 Z M82.0917582,32.6726562 C83.8227083,32.6726562 85.2093022,34.0528906 85.2093022,35.7794531 C85.2093022,37.505 83.8227083,38.8852344 82.0917582,38.8852344 C80.3608082,38.8852344 78.9752331,37.505 78.9752331,35.7794531 C78.9752331,34.0528906 80.3608082,32.6726562 82.0917582,32.6726562 Z M51.0889043,32.6726562 C52.8198544,32.6726562 54.2054295,34.0528906 54.2054295,35.7794531 C54.2054295,37.505 52.8198544,38.8852344 51.0889043,38.8852344 C49.3579543,38.8852344 47.9723792,37.505 47.9723792,35.7794531 C47.9723792,34.0528906 49.3579543,32.6726562 51.0889043,32.6726562 Z M75.8891702,0.851804687 C85.22652,0.851804687 89.6022884,4.30899219 89.6022884,10.8516484 C89.6022884,17.2876641 83.3050534,21.4893047 75.2483417,21.4893047 C73.0079891,21.4893047 71.0865225,21.4364922 69.4859795,21.2770391 L69.4859795,37.3401641 L74.7684845,37.3401641 L74.7684845,38.2978984 L56.8405692,38.2978984 L56.8405692,37.3401641 L61.1623409,37.3401641 L61.1623409,1.80953906 L56.8405692,1.80953906 L56.8405692,0.851804687 L75.8891702,0.851804687 Z M73.8077512,1.80953906 L69.4859795,1.80953906 L69.4859795,20.2654766 C70.1257891,20.4259453 70.9805667,20.5315703 71.7273509,20.5315703 C78.076545,20.5315703 80.6378213,17.4471172 80.6378213,11.1705547 C80.6378213,4.41563281 79.5701135,1.80953906 73.8077512,1.80953906 Z" id="Combined-Shape"/>
            </g>
        </g>
    </g>
</svg>