<svg id="Livello_1" data-name="Livello 1" xmlns="http://www.w3.org/2000/svg" width="140" height="45" viewBox="0 0 1066.21 340.46"><defs><style>.cls-1{fill:#1d1d1b;}</style></defs><title>FURLA_logo-lockup_option1</title><path class="cls-1" d="M702.42,857.54a18.43,18.43,0,1,1,0-31.85l5.93-10.18a30.22,30.22,0,1,0,0,52.21Z" transform="translate(-460.53 -531.38)"/><path class="cls-1" d="M491.12,841.61c-4-3.1-8.13-4.36-12.68-6-1.47-.51-3.13-.88-4.32-2.08a6.07,6.07,0,0,1-1.8-4.32,6.13,6.13,0,1,1,12.25,0h11.79a17.92,17.92,0,1,0-35.83,0c0,4.94,1.88,9.57,5.5,12.42,4.69,3.69,8,4.54,12.41,5.77,1.95.55,3.14.89,4.33,2.08a6.12,6.12,0,1,1-10.45,4.33H460.53a17.92,17.92,0,1,0,35.83,0C496.36,848.92,494.78,844.46,491.12,841.61Z" transform="translate(-460.53 -531.38)"/><rect class="cls-1" x="75.58" y="280.76" width="11.79" height="58.96"/><polygon class="cls-1" points="160.1 280.76 160.1 316.73 138.61 280.76 126.82 280.76 126.82 339.72 138.61 339.72 138.61 303.67 160.1 339.72 171.9 339.72 171.9 280.76 160.1 280.76"/><polygon class="cls-1" points="411.63 289.65 411.63 339.72 423.43 339.72 423.43 279.98 411.63 289.65"/><path class="cls-1" d="M962.44,829.27a17.92,17.92,0,1,0-18.69,17.88l-9.92,23.94h12.76L961,836.3A17.88,17.88,0,0,0,962.44,829.27Zm-24,0a6.12,6.12,0,1,1,6.12,6.13A6.12,6.12,0,0,1,938.4,829.27Z" transform="translate(-460.53 -531.38)"/><polygon class="cls-1" points="653.64 280.76 612.94 280.76 612.94 292.55 636 292.55 616.47 339.72 629.23 339.72 653.64 280.76"/><path class="cls-1" d="M1031,839.72h0a16.37,16.37,0,0,0,3.48-10.45,17.91,17.91,0,0,0-35.82,0h11.79a6.12,6.12,0,1,1,10.45,4.33h0l-22.24,25.66v11.8h35.82v-11.8h-19.87Z" transform="translate(-460.53 -531.38)"/><rect class="cls-1" x="749.82" y="280.76" width="11.79" height="58.96"/><polygon class="cls-1" points="843.56 280.76 806.72 280.76 806.72 292.55 819.24 292.55 819.24 339.72 831.03 339.72 831.03 292.55 843.56 292.55 843.56 280.76"/><polygon class="cls-1" points="955.09 339.72 991.93 339.72 991.93 327.93 966.88 327.93 966.88 280.76 955.09 280.76 955.09 339.72"/><path class="cls-1" d="M1359.13,812.14h-5.58l-22.46,59h12.63l3.16-8.84h19l3.16,8.84h12.63Zm-8.56,39.79,5.79-16.21,5.78,16.21Z" transform="translate(-460.53 -531.38)"/><polygon class="cls-1" points="1066.21 280.76 1052.4 280.76 1042.42 297.16 1032.44 280.76 1018.63 280.76 1036.52 310.24 1036.52 310.24 1036.52 339.72 1036.52 339.72 1048.32 339.72 1048.32 339.72 1048.32 310.24 1048.32 310.24 1066.21 280.76"/><polygon class="cls-1" points="316.3 292.55 316.3 280.76 279.48 280.76 279.48 339.72 316.3 339.72 316.3 327.94 291.26 327.94 291.26 316.15 311.89 316.15 311.89 304.37 291.26 304.37 291.26 292.55 316.3 292.55"/><polygon class="cls-1" points="135.16 0 135.16 43.26 43.26 43.26 43.26 86.52 118.96 86.52 118.96 129.78 43.26 129.78 43.26 216.29 0 216.29 0 0 135.16 0"/><path class="cls-1" d="M922.88,531.38V747.67h43.26V661.15h22.51l29.25,86.52h45.57l-32.14-95.4a64.88,64.88,0,0,0-32.75-120.89Zm43.26,43.25h32.44a21.63,21.63,0,0,1,0,43.26H966.14Z" transform="translate(-460.53 -531.38)"/><path class="cls-1" d="M1444.22,531.38h-20.49l-82.38,216.29h46.35l11.59-32.46h69.54l11.58,32.46h46.33Zm-31.42,146,21.25-59.48,21.21,59.48Z" transform="translate(-460.53 -531.38)"/><polygon class="cls-1" points="694.03 216.29 829.19 216.29 829.19 173.04 737.29 173.04 737.29 0 694.03 0 694.03 216.29"/><path class="cls-1" d="M832.64,531.38H789.38v146h0v.12a29.74,29.74,0,0,1-59.48,0s0-.08,0-.12h0v-146H686.64V677.49h0a73,73,0,0,0,146-.12Z" transform="translate(-460.53 -531.38)"/></svg>