<svg xmlns="http://www.w3.org/2000/svg" viewBox="0 0 741.32 81.97"><defs><style>.cls-1{fill:#1d1d1b;}.cls-2{fill:#dd0031;}</style></defs><title>Asset 1</title><g id="Layer_2" data-name="Layer 2"><g id="Layer_1-2" data-name="Layer 1"><path class="cls-1" d="M136.85,82c-14.61,0-26.29-3.56-34.73-10.58-7.92-6.58-12.64-18.11-12.64-30.87s4.84-24.17,12.95-30.58C110.74,3.34,122.32,0,136.85,0S163,3.35,171.41,9.94c8.1,6.4,12.94,17.83,12.94,30.58s-4.77,24.2-12.77,30.82C163.06,78.39,151.37,82,136.85,82m0-73.07c-11.49,0-20.49,2.56-26.75,7.62-5.94,4.81-9.48,13.78-9.48,24s3.59,19.34,9.6,24.45c6.33,5.37,15.3,8.09,26.64,8.09,11.51,0,20.56-2.7,26.89-8,6-5.07,9.6-14.23,9.6-24.51s-3.6-19.28-9.62-24c-6.32-5-15.36-7.57-26.87-7.57"/><path class="cls-1" d="M455.39,79.64a4.28,4.28,0,0,1-4.27-4.27V6.58a4.25,4.25,0,0,1,4.24-4.25h44c7.59,0,14,1.62,19.12,4.81,6.11,3.78,9.08,9.14,9.08,16.39,0,5.3-2.2,9.63-6.71,13.24l-2.6,2.08,2.84,1.73c6.07,3.69,9,9.16,9,16.72,0,8-3.6,13.82-11,17.75-5.64,3-12.78,4.59-21.23,4.59Zm6.27-8.92h37.61c6,0,10.93-1.07,14.64-3.2,4.25-2.33,6.42-5.74,6.42-10.11a10.93,10.93,0,0,0-6-10.23c-4-2.18-9.21-3.29-15.49-3.29H461.67Zm0-35.76H499c5.43,0,9.9-1,13.31-2.95a9.79,9.79,0,0,0,5.33-9,9.69,9.69,0,0,0-5.27-8.9c-3.4-1.93-7.85-2.91-13.25-2.91h-37.5Z"/><path class="cls-1" d="M61.07,70.73H10.59a.06.06,0,0,1-.07-.06V7.59A5.26,5.26,0,0,0,0,7.59V75a4.59,4.59,0,0,0,4.6,4.59H61.07a4.45,4.45,0,0,0,0-8.91"/><path class="cls-1" d="M631.46,70.73H581a.06.06,0,0,1-.06-.06V7.59a5.26,5.26,0,0,0-10.53,0V75A4.59,4.59,0,0,0,575,79.64h56.47a4.45,4.45,0,0,0,0-8.91"/><path class="cls-1" d="M736.87,70.74h-56.7V43.82h49.5a4.46,4.46,0,0,0,0-8.91h-49.5V11.23h56.7a4.45,4.45,0,0,0,0-8.9H673.8a4,4,0,0,0-4,4V75.6a4,4,0,0,0,4,4h63.07a4.45,4.45,0,0,0,0-8.9"/><path class="cls-1" d="M413.27,71.19l0,0L372.64,6.48a8.57,8.57,0,0,0-14.7,0L317.28,71.17l0,0a5.32,5.32,0,1,0,8.75,6h0L338.9,56.62h52.77l12.84,20.61h0a5.32,5.32,0,1,0,8.75-6m-48-56.33L386,47.71H344.55Z"/><path class="cls-2" d="M295.33,2.41a15.61,15.61,0,0,0-21.49,5c-4.56,7.28-16.52,26.3-16.52,26.3s-12-19-16.52-26.3a15.53,15.53,0,1,0-26.3,16.53l33,52.44h0a11.52,11.52,0,0,0,19.7,0h0l33-52.44a15.65,15.65,0,0,0-4.8-21.53"/></g></g></svg>