<?xml version="1.0" encoding="UTF-8"?>
<svg version="1.1" width="210px" height="18px" xmlns="http://www.w3.org/2000/svg" xmlns:xlink="http://www.w3.org/1999/xlink" x="0px" y="0px" viewBox="0 0 210 18" style="enable-background:new 0 0 210 18;" xml:space="preserve">
<g fill="#ffffff" fill-rule="evenodd" clip-rule="evenodd">
	<path d="M3.8,0.8L2.7,3.1h0L1.5,0.8C1.4,0.6,1.2,0.5,1,0.5H0v0.2c0.1,0,0.2,0,0.2,0.2v3.2c0,0.1-0.1,0.2-0.2,0.2v0.2   h1.4V4.3C1.1,4.3,1,4.3,1,4.1V1.8h0.1l1.5,2.8h0.1l1.5-2.8h0.1v2.3c0,0.1-0.1,0.2-0.3,0.2v0.2h1.4V4.3c-0.1,0-0.3-0.1-0.3-0.2V0.9   c0-0.1,0.1-0.2,0.3-0.2V0.5h-1C4.1,0.5,3.9,0.6,3.8,0.8"/>
	<path d="M11.5,3.8c0,0.5-0.4,1-1,1H7.9c-0.5,0-1-0.4-1-1V1.2c0-0.5,0.4-1,1-1h2.6c0.5,0,1,0.4,1,1V3.8z"/>
	<path d="M11.5,10c0,0.5-0.4,1-1,1H7.9c-0.5,0-1-0.4-1-1V7.4c0-0.5,0.4-1,1-1h2.6c0.5,0,1,0.4,1,1V10z"/>
	<path d="M17.8,3.8c0,0.5-0.4,1-1,1h-2.6c-0.5,0-1-0.4-1-1V1.2c0-0.5,0.4-1,1-1h2.6c0.5,0,1,0.4,1,1L17.8,3.8L17.8,3.8z   "/>
	<path d="M5.1,10c0,0.5-0.4,1-1,1H1.5c-0.5,0-1-0.4-1-1V7.4c0-0.5,0.4-1,1-1h2.6c0.5,0,1,0.4,1,1V10z"/>
	<path d="M17.8,10c0,0.5-0.4,1-1,1h-2.6c-0.5,0-1-0.4-1-1V7.4c0-0.5,0.4-1,1-1h2.6c0.5,0,1,0.4,1,1L17.8,10L17.8,10z"/>
	<path d="M17.8,16.2c0,0.5-0.4,1-1,1h-2.6c-0.5,0-1-0.4-1-1v-2.6c0-0.5,0.4-1,1-1h2.6c0.5,0,1,0.4,1,1L17.8,16.2   L17.8,16.2z"/>
	<path d="M11.5,16.2c0,0.5-0.4,1-1,1H7.9c-0.5,0-1-0.4-1-1v-2.6c0-0.5,0.4-1,1-1h2.6c0.5,0,1,0.4,1,1V16.2z"/>
	<path d="M5.1,16.2c0,0.5-0.4,1-1,1H1.5c-0.5,0-1-0.4-1-1v-2.6c0-0.5,0.4-1,1-1h2.6c0.5,0,1,0.4,1,1V16.2z"/>
	<path d="M44.1,0.2v0.9c-0.6,0-1,0.2-1,0.8v13.3c0,0.6,0.5,0.9,1,0.9v0.9h-5.9v-0.9c0.9,0,1.4-0.3,1.4-0.9V5.7h-0.3   L33,17.2h-0.5L26.4,5.6h-0.3v9.7c0,0.6,0.4,0.9,1.4,0.9v0.9h-5.7v-0.9c0.6,0,1-0.3,1-0.9V2c0-0.6-0.4-0.8-1-0.8V0.2h4   c1,0,1.7,0.5,2.1,1.3l4.9,9.4H33l5-9.4C38.3,0.8,39,0.2,40,0.2L44.1,0.2z"/>
	<path d="M67.4,8.7c0,6.2-5.2,8.7-10.2,8.7c-5,0-10.2-2.5-10.2-8.7c0-6.2,5.2-8.7,10.2-8.7C62.2,0,67.4,2.5,67.4,8.7    M50.6,8.7c0,3.9,3,5.6,6.5,5.6c3.5,0,6.5-1.7,6.5-5.6s-3-5.6-6.5-5.6C53.6,3.1,50.6,4.8,50.6,8.7"/>
	<path d="M73.6,0.2c0.7,0,1.3,0.6,1.3,1.3v12.6h8.9c1,0,1.8-0.5,1.8-1.3h0.9v4.3H70.2v-0.9c0.6,0,1-0.3,1-0.9V2   c0-0.6-0.5-0.8-1-0.8V0.2L73.6,0.2z"/>
	<path d="M102.1,9.9h-8.5v4.3h9.5c1.5,0,1.9-0.4,1.9-1.1h0.9v4.1H89v-0.9c0.6,0,1-0.3,1-0.9V2c0-0.6-0.4-0.8-1-0.8V0.2   h16.8v3.9h-0.9c0-0.7-0.5-1.2-2-1.2h-9.3v4.1h8.5L102.1,9.9L102.1,9.9z"/>
	<path d="M116.9,14.4c1.4,0,5.2-0.1,5.2-2.1c0-2-2.2-1.7-4.4-2l-1.7-0.2c-3.5-0.5-6.8-0.9-6.8-4.7   c0-3.1,2.5-5.4,7.8-5.4c4.6,0,8.4,2.2,8.4,2.2l-1.9,3.6l-0.7-0.2c0.1-0.5,0-0.9-0.5-1.3c-1.3-1-4.2-1.5-5.2-1.5   c-2.4,0-4.3,0.7-4.3,2.1c0,1.2,0.9,1.5,2.4,1.7l3,0.4c3.6,0.5,7.7,0.7,7.7,4.7c0,4.7-5.1,5.5-8.7,5.5c-5.1,0-8.2-2.2-8.2-2.2   l1.3-3.4l0.7,0.2c0,0.5,0.1,0.9,0.7,1.3C112.8,13.8,115.4,14.4,116.9,14.4"/>
	<path d="M133.2,8.8l9.2-8.6h4.3v0.9c-0.7,0-1.1,0.3-1.6,0.8l-5.7,5.3l5,6.5c1.3,1.7,1.5,2.1,2.9,2.5v0.9H144   c-1.1,0-1.8-0.5-2.4-1.3l-4.9-6.3l-3.5,3.3v2.4c0,0.6,0.4,0.9,1.4,0.9v0.9h-6.1v-0.9c0.6,0,1-0.3,1-0.9V2c0-0.6-0.4-0.8-1-0.8V0.2   h3.4c0.7,0,1.3,0.6,1.3,1.3L133.2,8.8z"/>
	<path d="M154.2,15.3c0,0.6,0.4,0.9,1,0.9v0.9h-5.7v-0.9c0.6,0,1-0.3,1-0.9V2c0-0.6-0.5-0.8-1-0.8V0.2h3.4   c0.7,0,1.3,0.6,1.3,1.3L154.2,15.3z"/>
	<path d="M162.9,5.3v10c0,0.6,0.4,0.9,1.4,0.9v0.9h-5.8v-0.9c0.6,0,1-0.3,1-0.9V2c0-0.6-0.5-0.8-1-0.8V0.2h2.9   c1.3,0,2.2,0.5,3,1.3l9.6,10.1V2.1c0-0.6-0.4-0.9-1.4-0.9V0.2h5.8v0.9c-0.6,0-1,0.2-1,0.8v13.3c0,0.6,0.4,0.9,1,0.9v0.9h-2.5   c-1.2,0-2.2-0.5-2.9-1.3L162.9,5.3z"/>
	<path d="M194.9,9.9h-8.5v4.3h9.5c1.5,0,1.9-0.4,1.9-1.1h0.9v4.1h-17v-0.9c0.6,0,1-0.3,1-0.9V2c0-0.6-0.4-0.8-1-0.8V0.2   h16.8v3.9h-0.9c0-0.7-0.5-1.2-2-1.2h-9.3v4.1h8.5L194.9,9.9z"/>
	<path d="M206,0.2c2.2,0,4,1.8,4,4.1s-1.8,4.1-4,4.1c-2.2,0-4-1.8-4-4.1S203.7,0.2,206,0.2z M206,7.6   c1.9,0,3.4-1.5,3.4-3.4c0-1.9-1.5-3.4-3.4-3.4c-1.9,0-3.4,1.5-3.4,3.4C202.6,6.1,204.1,7.6,206,7.6z M204.6,2.4   c0-0.1,0.1-0.2,0.2-0.2h1.6c0.7,0,1.4,0.4,1.4,1.3c0,0.8-0.6,1.1-0.9,1.2c0.2,0.4,0.4,0.9,0.7,1.3c0.1,0.1,0,0.3-0.2,0.3h-0.4   c-0.1,0-0.2-0.1-0.2-0.2l-0.6-1.4h-0.8v1.4c0,0.1-0.1,0.2-0.2,0.2h-0.3c-0.1,0-0.2-0.1-0.2-0.2V2.4z M206.4,4.1   c0.4,0,0.7-0.3,0.7-0.6c0-0.4-0.3-0.7-0.7-0.7h-1.1v1.3H206.4z"/>
</g>
</svg>