<?xml version="1.0" encoding="UTF-8"?>
<!-- Generator: Adobe Illustrator 15.1.0, SVG Export Plug-In . SVG Version: 6.00 Build 0)  -->
<!DOCTYPE svg PUBLIC "-//W3C//DTD SVG 1.1//EN" "http://www.w3.org/Graphics/SVG/1.1/DTD/svg11.dtd">
<svg version="1.1" id="Layer_1" xmlns="http://www.w3.org/2000/svg" xmlns:xlink="http://www.w3.org/1999/xlink" x="0px" y="0px" width="891px" height="219px" viewBox="0 0 891 219" enable-background="new 0 0 891 219" xml:space="preserve">
<g>
	<path fill="#EC008C" d="M719.838,134.139c1.865,0,3.364-1.502,3.364-3.346V76.002h37.539v59.086c0,5.322-4.585,10.821-10.87,10.821   h-38.847v-11.771H719.838L719.838,134.139L719.838,134.139z"/>
	<path fill="#EC008C" d="M209.836,76.002h-47.159l-18.749,69.907h29.289l2.677-10.174h10.32h10.39l2.691,10.174h29.273   L209.836,76.002L209.836,76.002L209.836,76.002L209.836,76.002L209.836,76.002z M178.403,116.693l7.774-27.306l7.996,27.306   H178.403L178.403,116.693L178.403,116.693z"/>
	<polygon fill="#EC008C" points="75.717,76.002 75.717,96.094 94.049,96.094 94.049,145.909 125.751,145.909 125.751,96.094    144.368,96.094 144.368,76.002 75.717,76.002 75.717,76.002 75.717,76.002  "/>
	<polygon fill="#EC008C" points="347.389,76.002 378.721,76.002 386.496,101.551 394.818,76.002 426.572,76.002 402.411,128.525    402.411,145.909 371.391,145.909 371.391,128.525 347.389,76.002 347.389,76.002 347.389,76.002  "/>
	<polygon fill="#EC008C" points="552.812,76.002 541.173,110.777 532.242,76.01 505.632,76.01 496.7,110.777 485.047,76.002    458.611,76.002 481.229,145.909 509.536,145.909 519.001,113.354 528.321,145.909 556.631,145.909 579.248,76.002 552.812,76.002    552.812,76.002  "/>
	<polygon fill="#EC008C" points="588.558,76.002 588.558,145.909 653.918,145.909 653.918,126.609 619.735,126.609 619.735,119.368    653.918,119.368 653.918,102.269 619.903,102.269 619.903,95.064 653.918,95.064 653.918,76.002 588.558,76.002 588.558,76.002    588.558,76.002  "/>
	<polygon fill="#EC008C" points="668.085,102.441 702.092,102.441 702.092,145.909 668.085,145.909 668.085,107.193    668.085,102.441 668.085,102.441  "/>
	<polygon fill="#EC008C" points="702.661,76.002 702.661,94.979 668.339,94.979 668.339,76.002 702.661,76.002 702.661,76.002  "/>
	<path fill="#EC008C" d="M812.188,122.707c-1.86,0-3.359-1.496-3.359-3.339V76.002h-37.943v59.086   c0,5.322,4.596,10.821,10.871,10.821H821v-23.202H812.188L812.188,122.707L812.188,122.707z"/>
	<path fill="#EC008C" d="M338.86,122.707c-1.864,0-3.365-1.496-3.365-3.339V76.002h-37.935v59.086   c0,5.322,4.587,10.821,10.864,10.821h39.244v-23.202H338.86L338.86,122.707L338.86,122.707z"/>
	<path fill="#EC008C" d="M278.017,122.707c-1.858,0-3.365-1.496-3.365-3.339V76.002h-37.935v59.086   c0,5.322,4.587,10.821,10.861,10.821h39.253v-23.202H278.017L278.017,122.707L278.017,122.707z"/>
</g>
</svg>