<svg xmlns="http://www.w3.org/2000/svg" viewBox="0 0 28.45 43.5"><defs><style>.cls-1{fill:#3f3f3f;}.cls-2{fill:none;stroke:#000;stroke-linecap:round;stroke-linejoin:round;stroke-width:2px;}</style></defs><g id="Livello_2" data-name="Livello 2"><g id="svg8"><g id="color"><polyline class="cls-1" points="13.99 1 1 15.52 10.53 15.52 10.69 27 17.48 27 17.46 15.52 26.98 15.52 13.99 1"/></g><g id="line"><polyline class="cls-2" points="13.99 1 1 15.52 10.53 15.52 10.69 27 17.48 27 17.46 15.52 26.98 15.52 13.99 1"/><path class="cls-2" d="M14.33,42.47h0a3.57,3.57,0,0,1-3.57-3.57V36a3.57,3.57,0,0,1,3.57-3.57h0A3.57,3.57,0,0,1,17.9,36V38.9A3.57,3.57,0,0,1,14.33,42.47Z"/><line class="cls-2" x1="2.14" y1="32.5" x2="7.86" y2="32.5"/><line class="cls-2" x1="5" y1="32.5" x2="5" y2="42.5"/><path class="cls-2" d="M21.14,42.47v-10H25A2.49,2.49,0,0,1,27.45,35h0A2.49,2.49,0,0,1,25,37.45H21.14"/></g></g></g></svg>